<?xml version="1.0" encoding="UTF-8"?>
<!DOCTYPE svg PUBLIC "-//W3C//DTD SVG 1.1//EN" "http://www.w3.org/Graphics/SVG/1.1/DTD/svg11.dtd">
<svg xmlns="http://www.w3.org/2000/svg" version="1.1" width="297px" height="170px" style="shape-rendering:geometricPrecision; text-rendering:geometricPrecision; image-rendering:optimizeQuality; fill-rule:evenodd; clip-rule:evenodd" xmlns:xlink="http://www.w3.org/1999/xlink">
<g><path style="opacity:1" fill="#333333" d="M -0.5,-0.5 C 98.5,-0.5 197.5,-0.5 296.5,-0.5C 296.5,56.1667 296.5,112.833 296.5,169.5C 197.5,169.5 98.5,169.5 -0.5,169.5C -0.5,112.833 -0.5,56.1667 -0.5,-0.5 Z"/></g>
<g><path style="opacity:1" fill="#efefef" d="M 131.5,41.5 C 152.045,38.8655 168.212,45.8655 180,62.5C 190.147,85.1605 185.647,104.327 166.5,120C 145.758,131.958 126.925,129.458 110,112.5C 96.0877,93.3924 96.0877,74.3924 110,55.5C 116.156,49.1787 123.323,44.512 131.5,41.5 Z"/></g>
<g><path style="opacity:1" fill="#343434" d="M 150.5,120.5 C 147.65,120.636 144.817,120.969 142,121.5C 138.511,120.724 135.011,120.058 131.5,119.5C 117.467,114.808 108.967,105.141 106,90.5C 104.271,64.6331 116.271,49.9664 142,46.5C 160.804,47.9757 173.137,57.6423 179,75.5C 181.578,98.376 172.078,113.376 150.5,120.5 Z"/></g>
<g><path style="opacity:1" fill="#fafafa" d="M 131.5,62.5 C 143.166,69.0014 154.166,76.5014 164.5,85C 154.039,92.736 143.372,100.236 132.5,107.5C 131.501,92.5148 131.167,77.5148 131.5,62.5 Z"/></g>
<g><path style="opacity:1" fill="#b4b4b4" d="M 131.5,119.5 C 135.011,120.058 138.511,120.724 142,121.5C 144.817,120.969 147.65,120.636 150.5,120.5C 144.038,123.289 137.704,122.955 131.5,119.5 Z"/></g>
</svg>
