<?xml version="1.0" encoding="UTF-8"?>
<!DOCTYPE svg PUBLIC "-//W3C//DTD SVG 1.1//EN" "http://www.w3.org/Graphics/SVG/1.1/DTD/svg11.dtd">
<svg xmlns="http://www.w3.org/2000/svg" version="1.1" width="380px" height="389px" style="shape-rendering:geometricPrecision; text-rendering:geometricPrecision; image-rendering:optimizeQuality; fill-rule:evenodd; clip-rule:evenodd" xmlns:xlink="http://www.w3.org/1999/xlink">
<g><path style="opacity:0.997" fill="#fa1503" d="M 245.5,-0.5 C 256.5,-0.5 267.5,-0.5 278.5,-0.5C 297.939,1.965 314.273,10.2983 327.5,24.5C 328.167,25.8333 329.167,26.8333 330.5,27.5C 330.833,28.5 331.5,29.1667 332.5,29.5C 332.5,30.1667 332.833,30.5 333.5,30.5C 333.427,32.0269 334.094,33.0269 335.5,33.5C 335.833,34.5 336.5,35.1667 337.5,35.5C 338.338,35.8417 338.672,36.5084 338.5,37.5C 338.932,38.7095 339.599,39.7095 340.5,40.5C 341.167,40.5 341.5,40.8333 341.5,41.5C 341.75,43.674 342.75,45.3406 344.5,46.5C 345.079,49.3311 346.412,51.6644 348.5,53.5C 348.66,55.153 349.326,56.4863 350.5,57.5C 379.233,120.135 383.4,184.469 363,250.5C 356.912,274.007 348.578,296.673 338,318.5C 313.956,364.275 276.123,384.442 224.5,379C 206.261,373.42 189.927,364.42 175.5,352C 158.135,334.967 140.469,318.301 122.5,302C 102.5,286.667 82.5,271.333 62.5,256C 48.3333,244.5 35.5,231.667 24,217.5C -1.61026,186.962 -3.11026,155.295 19.5,122.5C 20.4013,121.71 21.0679,120.71 21.5,119.5C 21.5,119.167 21.5,118.833 21.5,118.5C 23.8333,115.833 26.1667,113.167 28.5,110.5C 30.2624,109.738 31.2624,108.404 31.5,106.5C 55.1959,81.636 82.1959,61.136 112.5,45C 143.961,28.0689 176.961,15.0689 211.5,6C 222.91,3.49063 234.243,1.32396 245.5,-0.5 Z"/></g>
<g><path style="opacity:0.007" fill="#292929" d="M 327.5,24.5 C 329.5,24.5 330.5,25.5 330.5,27.5C 329.167,26.8333 328.167,25.8333 327.5,24.5 Z"/></g>
<g><path style="opacity:0.004" fill="#000000" d="M 330.5,27.5 C 331.833,27.5 332.5,28.1667 332.5,29.5C 331.5,29.1667 330.833,28.5 330.5,27.5 Z"/></g>
<g><path style="opacity:0.008" fill="#303030" d="M 333.5,30.5 C 334.906,30.9731 335.573,31.9731 335.5,33.5C 334.094,33.0269 333.427,32.0269 333.5,30.5 Z"/></g>
<g><path style="opacity:0.004" fill="#222222" d="M 335.5,33.5 C 336.833,33.5 337.5,34.1667 337.5,35.5C 336.5,35.1667 335.833,34.5 335.5,33.5 Z"/></g>
<g><path style="opacity:0.008" fill="#353535" d="M 338.5,37.5 C 340.048,37.8212 340.715,38.8212 340.5,40.5C 339.599,39.7095 338.932,38.7095 338.5,37.5 Z"/></g>
<g><path style="opacity:0.007" fill="#0c0c0c" d="M 341.5,41.5 C 343.25,42.6594 344.25,44.326 344.5,46.5C 342.75,45.3406 341.75,43.674 341.5,41.5 Z"/></g>
<g><path style="opacity:1" fill="#ec2514" d="M 182.5,42.5 C 254.351,40.6502 304.851,72.3169 334,137.5C 353.74,195.15 343.74,247.483 304,294.5C 286.963,312.195 266.796,325.028 243.5,333C 224.492,337.002 207.158,333.335 191.5,322C 149.667,280.167 107.833,238.333 66,196.5C 50.9552,175.095 48.6219,152.761 59,129.5C 84.4815,78.5578 125.648,49.5578 182.5,42.5 Z"/></g>
<g><path style="opacity:1" fill="#fdfaf9" d="M 180.5,45.5 C 241.427,42.875 287.927,67.2083 320,118.5C 341.223,159.169 344.223,201.169 329,244.5C 311.565,286.939 281.065,315.106 237.5,329C 220.404,331.52 205.071,327.52 191.5,317C 149.639,275.472 108.139,233.639 67,191.5C 53.8846,171.773 52.218,151.106 62,129.5C 86.6594,80.4317 126.159,52.4317 180.5,45.5 Z"/></g>
<g><path style="opacity:0.009" fill="#171717" d="M 344.5,46.5 C 346.669,48.3403 348.002,50.6737 348.5,53.5C 346.412,51.6644 345.079,49.3311 344.5,46.5 Z"/></g>
<g><path style="opacity:0.007" fill="#151515" d="M 348.5,53.5 C 350.104,54.287 350.771,55.6203 350.5,57.5C 349.326,56.4863 348.66,55.153 348.5,53.5 Z"/></g>
<g><path style="opacity:1" fill="#828282" d="M 186.5,297.5 C 241.508,296.752 278.008,270.418 296,218.5C 306.203,167.408 289.703,127.575 246.5,99C 217.174,83.7465 186.841,81.4132 155.5,92C 110.242,113.004 87.5753,148.504 87.5,198.5C 83.5368,194.036 79.3702,189.702 75,185.5C 65.557,171.954 63.2237,157.287 68,141.5C 88.8098,92.3637 125.643,63.8637 178.5,56C 245.307,52.4691 292.474,80.9691 320,141.5C 337.447,193.445 328.78,240.445 294,282.5C 278.221,299.935 259.054,312.102 236.5,319C 215.684,321.424 199.018,314.258 186.5,297.5 Z"/></g>
<g><path style="opacity:1" fill="#b4b3b3" d="M 186.5,297.5 C 153.167,264.833 120.167,231.833 87.5,198.5C 87.5753,148.504 110.242,113.004 155.5,92C 186.841,81.4132 217.174,83.7465 246.5,99C 289.703,127.575 306.203,167.408 296,218.5C 278.008,270.418 241.508,296.752 186.5,297.5 Z"/></g>
<g><path style="opacity:1" fill="#ea2429" d="M 159.5,261.5 C 158.833,255.167 158.167,248.833 157.5,242.5C 156.486,194.162 155.653,145.829 155,97.5C 201.085,124.126 247.252,150.626 293.5,177C 248.974,205.427 204.307,233.594 159.5,261.5 Z"/></g>
<g><path style="opacity:0.005" fill="#171717" d="M 31.5,106.5 C 31.2624,108.404 30.2624,109.738 28.5,110.5C 28.7376,108.596 29.7376,107.262 31.5,106.5 Z"/></g>
<g><path style="opacity:1" fill="#b4b2b2" d="M 165.5,115.5 C 201.866,135.678 237.866,156.345 273.5,177.5C 238.705,199.736 203.705,221.736 168.5,243.5C 166.649,200.855 165.649,158.188 165.5,115.5 Z"/></g>
<g><path style="opacity:0.004" fill="#fefffe" d="M 21.5,118.5 C 20.8333,117.167 20.8333,117.167 21.5,118.5 Z"/></g>
<g><path style="opacity:0.006" fill="#000000" d="M 21.5,119.5 C 21.0679,120.71 20.4013,121.71 19.5,122.5C 19.2852,120.821 19.9519,119.821 21.5,119.5 Z"/></g>
<g><path style="opacity:0.113" fill="#110e0e" d="M 350.5,57.5 C 353.922,63.2483 357.256,69.0816 360.5,75C 359.366,76.016 359.699,76.6827 361.5,77C 361.167,77.3333 360.833,77.6667 360.5,78C 371.48,105.245 377.814,133.745 379.5,163.5C 379.5,165.167 379.5,166.833 379.5,168.5C 378.167,168.833 378.167,169.167 379.5,169.5C 379.5,170.167 379.5,170.833 379.5,171.5C 378.167,172.167 378.167,172.833 379.5,173.5C 379.5,175.5 379.5,177.5 379.5,179.5C 376.749,208.717 371.583,237.05 364,264.5C 356.239,293.053 344.239,320.053 328,345.5C 306.272,371.95 277.772,386.283 242.5,388.5C 241.833,388.5 241.167,388.5 240.5,388.5C 215.114,386.362 193.614,376.695 176,359.5C 161.92,348.45 148.42,335.95 135.5,322C 129.603,316.594 123.603,311.428 117.5,306.5C 99.2143,292.403 80.7143,278.403 62,264.5C 50.672,254.505 39.672,244.172 29,233.5C 24.396,226.396 19.2294,219.73 13.5,213.5C 10.3178,207.136 7.15111,200.802 4,194.5C 1.89904,187.486 0.399035,180.486 -0.5,173.5C -0.5,172.5 -0.5,171.5 -0.5,170.5C 0.268149,163.162 1.76815,155.829 4,148.5C 6.74326,142.015 9.74326,135.681 13,129.5C 14.7354,126.638 16.9021,124.304 19.5,122.5C -3.11026,155.295 -1.61026,186.962 24,217.5C 35.5,231.667 48.3333,244.5 62.5,256C 82.5,271.333 102.5,286.667 122.5,302C 140.469,318.301 158.135,334.967 175.5,352C 189.927,364.42 206.261,373.42 224.5,379C 276.123,384.442 313.956,364.275 338,318.5C 348.578,296.673 356.912,274.007 363,250.5C 383.4,184.469 379.233,120.135 350.5,57.5 Z"/></g>
<g><path style="opacity:1" fill="#cf6b6e" d="M 157.5,242.5 C 158.167,248.833 158.833,255.167 159.5,261.5C 159.44,262.043 159.107,262.376 158.5,262.5C 157.503,255.866 157.17,249.2 157.5,242.5 Z"/></g>
<g><path style="opacity:0.004" fill="#000000" d="M 117.5,306.5 C 116.833,307.167 116.833,307.167 117.5,306.5 Z"/></g>
</svg>
